<?xml version="1.0" standalone="no"?>
<!DOCTYPE svg PUBLIC "-//W3C//DTD SVG 20010904//EN"
 "http://www.w3.org/TR/2001/REC-SVG-20010904/DTD/svg10.dtd">
<svg version="1.0" xmlns="http://www.w3.org/2000/svg"
 width="512.000000pt" height="512.000000pt" viewBox="0 0 512.000000 512.000000"
 preserveAspectRatio="xMidYMid meet">
<metadata>
Created by potrace 1.14, written by Peter Selinger 2001-2017
</metadata>
<g transform="translate(0.000000,512.000000) scale(0.100000,-0.100000)"
fill="#000000" stroke="none">
<path d="M4489 4338 l-75 -82 -32 24 c-31 23 -33 23 -49 7 -21 -21 -8 -50 26
-55 29 -5 27 -12 -17 -55 l-38 -38 -19 21 c-25 28 -60 23 -60 -9 0 -13 9 -29
20 -35 11 -6 22 -12 24 -14 8 -4 -52 -62 -65 -62 -6 0 -17 7 -24 15 -16 19
-56 20 -63 1 -7 -18 20 -56 39 -56 22 0 17 -13 -20 -49 -21 -21 -36 -46 -40
-69 -5 -36 -2 -40 75 -118 l81 -81 37 10 c20 6 52 25 71 44 l36 33 11 -30 c8
-22 18 -30 36 -30 35 0 42 28 17 63 l-22 29 24 25 c30 32 62 51 56 31 -8 -22
11 -48 36 -48 34 0 41 28 15 64 l-22 30 39 32 c36 31 39 32 42 14 4 -23 37
-44 58 -36 19 7 18 50 -1 66 -8 7 -15 18 -15 24 0 6 36 42 80 80 87 75 90 83
64 158 -21 62 -74 121 -136 152 -86 43 -102 38 -189 -56z m41 -92 c0 -7 -11
-23 -25 -36 l-25 -24 -23 23 -22 22 28 25 c23 19 32 22 48 14 10 -6 19 -17 19
-24z m-85 -66 c18 -20 18 -21 -25 -65 l-44 -45 -23 21 -22 22 37 43 c42 49 52
52 77 24z m219 -66 c24 -9 19 -50 -8 -67 -22 -15 -25 -15 -40 2 -21 23 -20 29
7 52 26 22 22 20 41 13z m-332 -41 c25 -23 23 -32 -19 -75 l-37 -38 -23 21
-22 22 36 43 c19 24 38 44 41 44 3 0 14 -7 24 -17z m262 -44 c17 -21 17 -22
-11 -51 -45 -48 -62 -53 -87 -28 l-21 21 45 39 c25 22 47 40 50 40 3 0 14 -9
24 -21z m-362 -66 c24 -21 23 -40 -2 -48 -37 -12 -64 27 -38 53 15 15 18 15
40 -5z m244 -44 c19 -21 19 -21 -20 -55 -22 -19 -42 -34 -46 -34 -4 0 -15 9
-26 21 -19 21 -18 21 18 55 44 40 49 41 74 13z m-100 -128 c-11 -17 -53 -13
-60 5 -3 8 -1 25 5 36 11 20 11 20 36 -5 14 -14 22 -30 19 -36z"/>
<path d="M3946 3719 l-87 -84 88 -88 88 -87 85 85 85 85 -87 86 -86 87 -86
-84z"/>
<path d="M3730 3513 l-88 -88 92 -94 92 -93 88 96 88 96 -83 85 c-45 47 -86
85 -91 85 -5 0 -49 -39 -98 -87z"/>
<path d="M3525 3320 l-80 -80 95 -95 95 -95 80 80 79 79 -89 94 c-50 52 -92
95 -95 96 -3 0 -41 -35 -85 -79z"/>
<path d="M3337 3142 l-67 -67 99 -99 99 -98 65 68 65 69 -91 97 c-49 54 -93
98 -96 98 -4 0 -37 -30 -74 -68z"/>
<path d="M3171 2983 l-63 -56 103 -104 104 -103 62 62 63 63 -97 97 c-54 54
-100 98 -104 98 -3 0 -34 -25 -68 -57z"/>
<path d="M2360 2894 c-140 -38 -219 -119 -355 -368 -79 -144 -119 -168 -354
-211 -165 -30 -251 -55 -346 -101 -184 -90 -345 -264 -406 -441 -82 -235 18
-522 283 -809 305 -332 559 -476 812 -461 158 9 282 69 418 203 154 151 211
269 272 567 37 179 66 252 118 290 18 13 83 50 143 81 225 118 306 208 337
373 21 113 -34 282 -137 422 l-47 63 23 24 23 25 -104 104 -104 105 -21 -20
c-12 -11 -25 -20 -28 -20 -4 0 -31 18 -59 41 -105 83 -273 149 -373 148 -22 0
-65 -7 -95 -15z m593 -332 c102 -104 106 -110 89 -125 -17 -16 -24 -11 -125
97 -79 85 -103 116 -94 125 6 6 14 11 17 11 3 0 54 -49 113 -108z m-111 -116
c93 -99 105 -116 92 -127 -13 -11 -31 3 -126 98 -78 78 -109 116 -105 127 4 9
12 16 19 16 7 0 61 -51 120 -114z m-4 -223 c-10 -9 -19 -15 -20 -12 -2 3 -52
55 -112 116 -96 98 -108 114 -96 128 12 15 26 4 129 -99 109 -109 115 -117 99
-133z m-183 42 c91 -98 105 -118 94 -131 -11 -13 -19 -8 -66 38 -93 91 -175
187 -168 198 14 22 36 5 140 -105z m-175 68 c0 -4 -12 -20 -27 -35 -19 -20
-37 -28 -62 -28 -78 -1 -175 -75 -201 -155 -7 -20 -10 -65 -8 -101 3 -50 10
-72 34 -106 65 -93 163 -128 272 -97 85 24 162 124 162 211 0 22 45 78 63 78
4 0 7 -27 7 -60 0 -268 -311 -408 -513 -231 -57 50 -90 124 -95 212 -4 67 -1
83 23 138 50 112 156 181 278 181 37 0 67 -3 67 -7z m1 -84 c153 -46 205 -247
95 -367 -28 -32 -85 -60 -135 -68 -124 -20 -251 92 -251 221 0 59 21 107 68
154 66 66 138 85 223 60z m-608 -756 c274 -277 317 -324 308 -341 -12 -22 -97
-102 -109 -102 -17 0 -642 640 -642 657 0 23 91 115 110 111 8 -2 158 -148
333 -325z"/>
<path d="M3020 2840 l-55 -50 105 -105 105 -105 55 55 55 55 -100 100 c-55 55
-102 100 -105 100 -3 -1 -30 -23 -60 -50z"/>
</g>
</svg>
